<?xml version="1.0" encoding="UTF-8" standalone="no"?>
<!-- Created with Inkscape (http://www.inkscape.org/) -->

<svg
   xmlns:dc="http://purl.org/dc/elements/1.1/"
   xmlns:cc="http://creativecommons.org/ns#"
   xmlns:rdf="http://www.w3.org/1999/02/22-rdf-syntax-ns#"
   xmlns:svg="http://www.w3.org/2000/svg"
   xmlns="http://www.w3.org/2000/svg"
   xmlns:sodipodi="http://sodipodi.sourceforge.net/DTD/sodipodi-0.dtd"
   xmlns:inkscape="http://www.inkscape.org/namespaces/inkscape"
   id="svg2"
   version="1.1"
   inkscape:version="0.91 r13725"
   xml:space="preserve"
   width="938.91229"
   height="572.00043"
   viewBox="0 0 938.91229 572.00043"
   sodipodi:docname="Toilets_unisex_star2.svg"><metadata
     id="metadata8"><rdf:RDF><cc:Work
         rdf:about=""><dc:format>image/svg+xml</dc:format><dc:type
           rdf:resource="http://purl.org/dc/dcmitype/StillImage" /><dc:title></dc:title></cc:Work></rdf:RDF></metadata><defs
     id="defs6" /><sodipodi:namedview
     pagecolor="#ffffff"
     bordercolor="#666666"
     borderopacity="1"
     objecttolerance="10"
     gridtolerance="10"
     guidetolerance="10"
     inkscape:pageopacity="0"
     inkscape:pageshadow="2"
     inkscape:window-width="640"
     inkscape:window-height="480"
     id="namedview4"
     showgrid="false"
     inkscape:zoom="0.40152845"
     inkscape:cx="469.45615"
     inkscape:cy="286.00021"
     inkscape:window-x="0"
     inkscape:window-y="21"
     inkscape:window-maximized="0"
     inkscape:current-layer="g10" /><g
     id="g10"
     inkscape:groupmode="layer"
     inkscape:label="Toilets_unisex_star"
     transform="matrix(1.25,0,0,-1.25,0,572.00043)"><g
       id="g12"><path
         d="m 141.969,420.366 c 0,-20.566 -16.672,-37.238 -37.235,-37.238 -20.566,0 -37.238,16.672 -37.238,37.238 0,20.562 16.672,37.234 37.238,37.234 20.563,0 37.235,-16.672 37.235,-37.234 z"
         style="fill:#000000;fill-opacity:1;fill-rule:nonzero;stroke:none"
         id="path14"
         inkscape:connector-curvature="0" /><path
         d="m 99.578,147.108 0,-129.469 C 99.383,-5.88 64.367,-5.88 64.059,17.639 l 0,129.469 -45.829,0 49.266,173.004 -8.019,0 -28.645,-98.531 C 23.594,199.788 -5.875,208.612 1.043,231.893 l 32.082,106.551 c 3.687,12.238 19.109,33.844 45.828,34.371 l 51.559,0 c 25.949,-0.527 41.433,-22.316 45.828,-34.371 l 32.082,-106.551 c 6.508,-23.168 -22.727,-32.675 -29.789,-10.312 l -28.645,98.531 -9.164,0 50.41,-173.004 -46.972,0 0,-129.469 c 0.367,-23.519 -34.512,-23.406 -34.371,0 l 0,129.469 -10.313,0 z"
         style="fill:#000000;fill-opacity:1;fill-rule:nonzero;stroke:none"
         id="path16"
         inkscape:connector-curvature="0" /><path
         d="m 446.734,420.366 c 0,-20.566 -16.672,-37.238 -37.238,-37.238 -20.562,0 -37.234,16.672 -37.234,37.238 0,20.562 16.672,37.234 37.234,37.234 20.566,0 37.238,-16.672 37.238,-37.234 z"
         style="fill:#000000;fill-opacity:1;fill-rule:nonzero;stroke:none"
         id="path18"
         inkscape:connector-curvature="0" /><path
         d="m 369.969,372.815 c -28.633,0 -46.973,-24.789 -46.973,-49.265 l 0,-114.571 c -0.266,-22.39 31.973,-22.39 32.078,0 l 0,105.406 8.02,0 0,-291.015 c -0.496,-30.383 42.437,-29.516 42.394,0 l 0,169.566 6.875,0 0,-169.566 c 0.559,-29.516 43.719,-30.383 43.535,0 l 0,291.015 8.02,0 0,-105.406 c -0.375,-22.562 31.691,-22.562 32.082,0 l 0,114.571 c -0.457,24.476 -19.488,48.828 -48.121,49.265 l -77.91,0 z"
         style="fill:#000000;fill-opacity:1;fill-rule:nonzero;stroke:none"
         id="path20"
         inkscape:connector-curvature="0" /><path
         d="m 238.207,453.018 42.395,0 0,-450.273 -42.395,0 0,450.273 z"
         style="fill:#000000;fill-opacity:1;fill-rule:nonzero;stroke:none"
         id="path22"
         inkscape:connector-curvature="0" /><path
         d="m 535.262,453.018 42.398,0 0,-450.273 -42.398,0 0,450.273 z"
         style="fill:#000000;fill-opacity:1;fill-rule:nonzero;stroke:none"
         id="path24"
         inkscape:connector-curvature="0" /><text
         transform="matrix(1,0,0,-1,614.62986,78.191581)"
         style="font-variant:normal;font-weight:900;font-size:300px;font-family:'Fira Sans Heavy';-inkscape-font-specification:FiraSans-Heavy;writing-mode:lr-tb;fill:#000000;fill-opacity:1;fill-rule:nonzero;stroke:none"
         id="text26"><tspan
           x="0"
           y="0"
           id="tspan28">*</tspan></text>
</g></g></svg>